<mxfile host="Electron" modified="2024-03-08T01:13:03.362Z" agent="Mozilla/5.0 (Windows NT 10.0; Win64; x64) AppleWebKit/537.36 (KHTML, like Gecko) draw.io/23.1.5 Chrome/120.0.6099.109 Electron/28.1.0 Safari/537.36" version="23.1.5" etag="E7CbTfI-dFaCCgm0V-6R" type="device">
  <diagram id="DMGIJAiQpp0KsUr5CgKI" name="Page-1">
    <mxGraphModel dx="1366" dy="796" grid="1" gridSize="10" guides="1" tooltips="1" connect="1" arrows="1" fold="1" page="1" pageScale="1" pageWidth="850" pageHeight="1100" math="0" shadow="0">
      <root>
        <mxCell id="0" />
        <mxCell id="1" parent="0" />
        <mxCell id="J-cQFr8L8aMvakjn7C2Y-2" value="Cyberspace and Electromagnetic Warfare Forces Apply" style="html=1;whiteSpace=wrap;" vertex="1" parent="1">
          <mxGeometry x="120" width="590" height="30" as="geometry" />
        </mxCell>
        <mxCell id="J-cQFr8L8aMvakjn7C2Y-3" value="Operating In and Through" style="html=1;whiteSpace=wrap;" vertex="1" parent="1">
          <mxGeometry x="120" y="150" width="590" height="30" as="geometry" />
        </mxCell>
        <mxCell id="J-cQFr8L8aMvakjn7C2Y-5" value="Principles" style="swimlane;fontStyle=1;align=center;verticalAlign=top;childLayout=stackLayout;horizontal=1;startSize=26;horizontalStack=0;resizeParent=1;resizeParentMax=0;resizeLast=0;collapsible=1;marginBottom=0;whiteSpace=wrap;html=1;" vertex="1" parent="1">
          <mxGeometry x="140" y="50" width="270" height="80" as="geometry">
            <mxRectangle x="290" y="282" width="100" height="30" as="alternateBounds" />
          </mxGeometry>
        </mxCell>
        <mxCell id="J-cQFr8L8aMvakjn7C2Y-6" value="-Operational Forces&lt;br&gt;-Adaptability and Versatility&lt;br&gt;-Global Reach" style="text;strokeColor=none;fillColor=none;align=left;verticalAlign=top;spacingLeft=4;spacingRight=4;overflow=hidden;rotatable=0;points=[[0,0.5],[1,0.5]];portConstraint=eastwest;whiteSpace=wrap;html=1;" vertex="1" parent="J-cQFr8L8aMvakjn7C2Y-5">
          <mxGeometry y="26" width="270" height="54" as="geometry" />
        </mxCell>
        <mxCell id="J-cQFr8L8aMvakjn7C2Y-9" value="Core Competencies" style="swimlane;fontStyle=1;align=center;verticalAlign=top;childLayout=stackLayout;horizontal=1;startSize=26;horizontalStack=0;resizeParent=1;resizeParentMax=0;resizeLast=0;collapsible=1;marginBottom=0;whiteSpace=wrap;html=1;" vertex="1" parent="1">
          <mxGeometry x="430" y="50" width="260" height="80" as="geometry">
            <mxRectangle x="290" y="282" width="100" height="30" as="alternateBounds" />
          </mxGeometry>
        </mxCell>
        <mxCell id="J-cQFr8L8aMvakjn7C2Y-10" value="-Enhance Situational Awareness&lt;br&gt;-Protect Friendly Networks and Systems&lt;br&gt;-Generate Effects" style="text;strokeColor=none;fillColor=none;align=left;verticalAlign=top;spacingLeft=4;spacingRight=4;overflow=hidden;rotatable=0;points=[[0,0.5],[1,0.5]];portConstraint=eastwest;whiteSpace=wrap;html=1;" vertex="1" parent="J-cQFr8L8aMvakjn7C2Y-9">
          <mxGeometry y="26" width="260" height="54" as="geometry" />
        </mxCell>
        <mxCell id="J-cQFr8L8aMvakjn7C2Y-12" value="Cyberspace" style="html=1;whiteSpace=wrap;" vertex="1" parent="1">
          <mxGeometry x="140" y="200" width="270" height="30" as="geometry" />
        </mxCell>
        <mxCell id="J-cQFr8L8aMvakjn7C2Y-13" value="The Electromagnetic Spectrum" style="html=1;whiteSpace=wrap;" vertex="1" parent="1">
          <mxGeometry x="430" y="200" width="260" height="30" as="geometry" />
        </mxCell>
        <mxCell id="J-cQFr8L8aMvakjn7C2Y-11" value="&lt;font style=&quot;font-size: 9px;&quot;&gt;AND&lt;/font&gt;" style="text;html=1;align=center;verticalAlign=middle;whiteSpace=wrap;rounded=0;" vertex="1" parent="1">
          <mxGeometry x="390" y="200" width="60" height="30" as="geometry" />
        </mxCell>
        <mxCell id="J-cQFr8L8aMvakjn7C2Y-14" value="By Conducting" style="html=1;whiteSpace=wrap;" vertex="1" parent="1">
          <mxGeometry x="120" y="250" width="590" height="30" as="geometry" />
        </mxCell>
        <mxCell id="J-cQFr8L8aMvakjn7C2Y-15" value="Cyberspace Operations" style="swimlane;fontStyle=1;align=center;verticalAlign=top;childLayout=stackLayout;horizontal=1;startSize=26;horizontalStack=0;resizeParent=1;resizeParentMax=0;resizeLast=0;collapsible=1;marginBottom=0;whiteSpace=wrap;html=1;" vertex="1" parent="1">
          <mxGeometry x="140" y="300" width="270" height="80" as="geometry">
            <mxRectangle x="290" y="282" width="100" height="30" as="alternateBounds" />
          </mxGeometry>
        </mxCell>
        <mxCell id="J-cQFr8L8aMvakjn7C2Y-16" value="-DODIN Operations&lt;br&gt;-Defensive Cyberspace Operations&lt;br&gt;-Offensive Cyberspace Operations" style="text;strokeColor=none;fillColor=none;align=left;verticalAlign=top;spacingLeft=4;spacingRight=4;overflow=hidden;rotatable=0;points=[[0,0.5],[1,0.5]];portConstraint=eastwest;whiteSpace=wrap;html=1;" vertex="1" parent="J-cQFr8L8aMvakjn7C2Y-15">
          <mxGeometry y="26" width="270" height="54" as="geometry" />
        </mxCell>
        <mxCell id="J-cQFr8L8aMvakjn7C2Y-17" value="Electromagnetic Warfare" style="swimlane;fontStyle=1;align=center;verticalAlign=top;childLayout=stackLayout;horizontal=1;startSize=26;horizontalStack=0;resizeParent=1;resizeParentMax=0;resizeLast=0;collapsible=1;marginBottom=0;whiteSpace=wrap;html=1;" vertex="1" parent="1">
          <mxGeometry x="430" y="300" width="260" height="80" as="geometry">
            <mxRectangle x="290" y="282" width="100" height="30" as="alternateBounds" />
          </mxGeometry>
        </mxCell>
        <mxCell id="J-cQFr8L8aMvakjn7C2Y-18" value="-Electromagnetic Attack&lt;br&gt;&lt;b style=&quot;&quot;&gt;-Electromagnetic Protection&lt;br&gt;-Electromagnetic Support&lt;/b&gt;" style="text;strokeColor=none;fillColor=none;align=left;verticalAlign=top;spacingLeft=4;spacingRight=4;overflow=hidden;rotatable=0;points=[[0,0.5],[1,0.5]];portConstraint=eastwest;whiteSpace=wrap;html=1;" vertex="1" parent="J-cQFr8L8aMvakjn7C2Y-17">
          <mxGeometry y="26" width="260" height="54" as="geometry" />
        </mxCell>
        <mxCell id="J-cQFr8L8aMvakjn7C2Y-19" value="Integrated and Synchronized through the Operations Process" style="html=1;whiteSpace=wrap;" vertex="1" parent="1">
          <mxGeometry x="120" y="400" width="590" height="30" as="geometry" />
        </mxCell>
        <mxCell id="J-cQFr8L8aMvakjn7C2Y-20" value="&lt;b&gt;Step 1:&lt;br&gt;Receipt of Mission&lt;/b&gt;" style="html=1;whiteSpace=wrap;" vertex="1" parent="1">
          <mxGeometry x="280" y="450" width="270" height="30" as="geometry" />
        </mxCell>
        <mxCell id="J-cQFr8L8aMvakjn7C2Y-21" value="&lt;b style=&quot;&quot;&gt;Step 2:&lt;br&gt;Mission Analysis&lt;/b&gt;" style="html=1;whiteSpace=wrap;" vertex="1" parent="1">
          <mxGeometry x="280" y="500" width="270" height="30" as="geometry" />
        </mxCell>
        <mxCell id="J-cQFr8L8aMvakjn7C2Y-22" value="&lt;b style=&quot;&quot;&gt;Step 3:&lt;br&gt;Course of Action (COA) Development&lt;/b&gt;" style="html=1;whiteSpace=wrap;" vertex="1" parent="1">
          <mxGeometry x="280" y="550" width="270" height="30" as="geometry" />
        </mxCell>
        <mxCell id="J-cQFr8L8aMvakjn7C2Y-23" value="Step 6:&lt;br&gt;COA Approval" style="html=1;whiteSpace=wrap;" vertex="1" parent="1">
          <mxGeometry x="280" y="700" width="270" height="30" as="geometry" />
        </mxCell>
        <mxCell id="J-cQFr8L8aMvakjn7C2Y-24" value="Step 5:&lt;br&gt;COA Comparison" style="html=1;whiteSpace=wrap;" vertex="1" parent="1">
          <mxGeometry x="280" y="650" width="270" height="30" as="geometry" />
        </mxCell>
        <mxCell id="J-cQFr8L8aMvakjn7C2Y-25" value="Step 4:&lt;div&gt;COA Analysis and Wargaming&lt;/div&gt;" style="html=1;whiteSpace=wrap;" vertex="1" parent="1">
          <mxGeometry x="280" y="600" width="270" height="30" as="geometry" />
        </mxCell>
        <mxCell id="J-cQFr8L8aMvakjn7C2Y-26" value="Step 7:&lt;br&gt;Operations Order Production" style="html=1;whiteSpace=wrap;" vertex="1" parent="1">
          <mxGeometry x="280" y="750" width="270" height="30" as="geometry" />
        </mxCell>
        <mxCell id="J-cQFr8L8aMvakjn7C2Y-28" value="" style="strokeWidth=2;html=1;shape=mxgraph.flowchart.annotation_2;align=left;labelPosition=right;pointerEvents=1;" vertex="1" parent="1">
          <mxGeometry x="230" y="465" width="50" height="50" as="geometry" />
        </mxCell>
        <mxCell id="J-cQFr8L8aMvakjn7C2Y-29" value="Function 1:&lt;br&gt;Strategic Guidance" style="html=1;whiteSpace=wrap;" vertex="1" parent="1">
          <mxGeometry x="120" y="475" width="120" height="30" as="geometry" />
        </mxCell>
        <mxCell id="J-cQFr8L8aMvakjn7C2Y-30" value="" style="strokeWidth=2;html=1;shape=mxgraph.flowchart.annotation_2;align=left;labelPosition=right;pointerEvents=1;" vertex="1" parent="1">
          <mxGeometry x="230" y="565" width="50" height="150" as="geometry" />
        </mxCell>
        <mxCell id="J-cQFr8L8aMvakjn7C2Y-31" value="Function 2:&lt;br&gt;Concept Development" style="html=1;whiteSpace=wrap;" vertex="1" parent="1">
          <mxGeometry x="120" y="617.5" width="120" height="45" as="geometry" />
        </mxCell>
        <mxCell id="J-cQFr8L8aMvakjn7C2Y-32" value="Function 3:&lt;br&gt;Plan Development" style="html=1;whiteSpace=wrap;" vertex="1" parent="1">
          <mxGeometry x="120" y="750" width="120" height="30" as="geometry" />
        </mxCell>
        <mxCell id="J-cQFr8L8aMvakjn7C2Y-33" value="" style="endArrow=none;html=1;rounded=0;entryX=0;entryY=0.5;entryDx=0;entryDy=0;strokeWidth=2;" edge="1" parent="1" target="J-cQFr8L8aMvakjn7C2Y-26">
          <mxGeometry width="50" height="50" relative="1" as="geometry">
            <mxPoint x="240" y="765" as="sourcePoint" />
            <mxPoint x="290" y="715" as="targetPoint" />
          </mxGeometry>
        </mxCell>
        <mxCell id="J-cQFr8L8aMvakjn7C2Y-35" value="" style="html=1;shadow=0;dashed=0;align=center;verticalAlign=middle;shape=mxgraph.arrows2.uTurnArrow;dy=11;arrowHead=43;dx2=30.25;rotation=-180;" vertex="1" parent="1">
          <mxGeometry x="690" y="326" width="100" height="110" as="geometry" />
        </mxCell>
        <mxCell id="J-cQFr8L8aMvakjn7C2Y-36" value="" style="html=1;shadow=0;dashed=0;align=center;verticalAlign=middle;shape=mxgraph.arrows2.uTurnArrow;dy=11;arrowHead=43;dx2=30.25;rotation=-180;" vertex="1" parent="1">
          <mxGeometry x="690" y="77" width="100" height="110" as="geometry" />
        </mxCell>
        <mxCell id="J-cQFr8L8aMvakjn7C2Y-37" value="" style="html=1;shadow=0;dashed=0;align=center;verticalAlign=middle;shape=mxgraph.arrows2.uTurnArrow;dy=11;arrowHead=43;dx2=30.25;rotation=-180;flipV=0;flipH=1;" vertex="1" parent="1">
          <mxGeometry x="40" y="326" width="100" height="110" as="geometry" />
        </mxCell>
        <mxCell id="J-cQFr8L8aMvakjn7C2Y-38" value="" style="html=1;shadow=0;dashed=0;align=center;verticalAlign=middle;shape=mxgraph.arrows2.uTurnArrow;dy=11;arrowHead=43;dx2=30.25;rotation=-180;flipV=0;flipH=1;" vertex="1" parent="1">
          <mxGeometry x="40" y="77" width="100" height="110" as="geometry" />
        </mxCell>
        <mxCell id="J-cQFr8L8aMvakjn7C2Y-39" value="&lt;b&gt;Assessment&lt;/b&gt;" style="html=1;whiteSpace=wrap;" vertex="1" parent="1">
          <mxGeometry x="280" y="800" width="270" height="30" as="geometry" />
        </mxCell>
        <mxCell id="J-cQFr8L8aMvakjn7C2Y-40" value="Function 4:&lt;br&gt;Plan Assessment" style="html=1;whiteSpace=wrap;" vertex="1" parent="1">
          <mxGeometry x="120" y="800" width="120" height="30" as="geometry" />
        </mxCell>
        <mxCell id="J-cQFr8L8aMvakjn7C2Y-41" value="" style="endArrow=none;html=1;rounded=0;entryX=0;entryY=0.5;entryDx=0;entryDy=0;strokeWidth=2;" edge="1" parent="1">
          <mxGeometry width="50" height="50" relative="1" as="geometry">
            <mxPoint x="240" y="814.52" as="sourcePoint" />
            <mxPoint x="280" y="814.52" as="targetPoint" />
          </mxGeometry>
        </mxCell>
        <mxCell id="J-cQFr8L8aMvakjn7C2Y-42" value="Approved&lt;br&gt;Mission" style="rounded=1;whiteSpace=wrap;html=1;arcSize=40;fontColor=#000000;fillColor=#ffffc0;strokeColor=#ff0000;" vertex="1" parent="1">
          <mxGeometry x="510" y="500" width="100" height="30" as="geometry" />
        </mxCell>
        <mxCell id="J-cQFr8L8aMvakjn7C2Y-44" value="Approved&lt;br&gt;Concept" style="rounded=1;whiteSpace=wrap;html=1;arcSize=40;fontColor=#000000;fillColor=#ffffc0;strokeColor=#ff0000;" vertex="1" parent="1">
          <mxGeometry x="510" y="700" width="100" height="30" as="geometry" />
        </mxCell>
        <mxCell id="J-cQFr8L8aMvakjn7C2Y-45" value="Approved&lt;br&gt;Plan" style="rounded=1;whiteSpace=wrap;html=1;arcSize=40;fontColor=#000000;fillColor=#ffffc0;strokeColor=#ff0000;" vertex="1" parent="1">
          <mxGeometry x="510" y="750" width="100" height="30" as="geometry" />
        </mxCell>
        <mxCell id="J-cQFr8L8aMvakjn7C2Y-46" value="Refine, Adapt, Terminate or Execute" style="rounded=1;whiteSpace=wrap;html=1;arcSize=40;fontColor=#000000;fillColor=#ffffc0;strokeColor=#ff0000;" vertex="1" parent="1">
          <mxGeometry x="510" y="800" width="120" height="30" as="geometry" />
        </mxCell>
        <mxCell id="J-cQFr8L8aMvakjn7C2Y-53" value="Commander" style="ellipse;whiteSpace=wrap;html=1;aspect=fixed;" vertex="1" parent="1">
          <mxGeometry x="380" y="910" width="80" height="80" as="geometry" />
        </mxCell>
        <mxCell id="J-cQFr8L8aMvakjn7C2Y-56" value="" style="html=1;shadow=0;dashed=0;align=center;verticalAlign=middle;shape=mxgraph.arrows2.bendArrow;dy=15;dx=38;notch=0;arrowHead=55;rounded=0;rotation=-15;" vertex="1" parent="1">
          <mxGeometry x="310" y="860" width="100" height="100" as="geometry" />
        </mxCell>
        <mxCell id="J-cQFr8L8aMvakjn7C2Y-57" value="" style="html=1;shadow=0;dashed=0;align=center;verticalAlign=middle;shape=mxgraph.arrows2.bendArrow;dy=15;dx=38;notch=0;arrowHead=55;rounded=0;rotation=-125;" vertex="1" parent="1">
          <mxGeometry x="370" y="970" width="100" height="100" as="geometry" />
        </mxCell>
        <mxCell id="J-cQFr8L8aMvakjn7C2Y-58" value="" style="html=1;shadow=0;dashed=0;align=center;verticalAlign=middle;shape=mxgraph.arrows2.bendArrow;dy=15;dx=38;notch=0;arrowHead=55;rounded=0;rotation=90;" vertex="1" parent="1">
          <mxGeometry x="430" y="860" width="100" height="100" as="geometry" />
        </mxCell>
        <mxCell id="J-cQFr8L8aMvakjn7C2Y-59" value="Prepare" style="text;html=1;align=center;verticalAlign=middle;whiteSpace=wrap;rounded=0;" vertex="1" parent="1">
          <mxGeometry x="440" y="860" width="60" height="30" as="geometry" />
        </mxCell>
        <mxCell id="J-cQFr8L8aMvakjn7C2Y-60" value="Execute" style="text;html=1;align=center;verticalAlign=middle;whiteSpace=wrap;rounded=0;rotation=145;" vertex="1" parent="1">
          <mxGeometry x="417" y="1029" width="60" height="30" as="geometry" />
        </mxCell>
        <mxCell id="J-cQFr8L8aMvakjn7C2Y-61" value="Plan" style="text;html=1;align=center;verticalAlign=middle;whiteSpace=wrap;rounded=0;rotation=-15;" vertex="1" parent="1">
          <mxGeometry x="309" y="878" width="60" height="30" as="geometry" />
        </mxCell>
        <mxCell id="J-cQFr8L8aMvakjn7C2Y-62" value="Assess" style="text;html=1;align=center;verticalAlign=middle;whiteSpace=wrap;rounded=0;rotation=-15;" vertex="1" parent="1">
          <mxGeometry x="309" y="855" width="60" height="30" as="geometry" />
        </mxCell>
        <mxCell id="J-cQFr8L8aMvakjn7C2Y-63" value="Assess" style="text;html=1;align=center;verticalAlign=middle;whiteSpace=wrap;rounded=0;rotation=90;" vertex="1" parent="1">
          <mxGeometry x="496" y="885" width="60" height="30" as="geometry" />
        </mxCell>
        <mxCell id="J-cQFr8L8aMvakjn7C2Y-64" value="Assess" style="text;html=1;align=center;verticalAlign=middle;whiteSpace=wrap;rounded=0;rotation=-126;" vertex="1" parent="1">
          <mxGeometry x="359" y="1041" width="60" height="30" as="geometry" />
        </mxCell>
      </root>
    </mxGraphModel>
  </diagram>
</mxfile>
